HIERARCHY
ROOT pelvis
{
  OFFSET 0 100 0
  CHANNELS 6 Xposition Yposition Zposition Zrotation Xrotation Yrotation
  JOINT pelvis_right_femur
  {
    OFFSET -10.78128 -3.44521 -0.5502486
    CHANNELS 3 Zrotation Xrotation Yrotation
    JOINT right_femur_tibia
    {
      OFFSET -0.8047443 -44.0398 -0.1307829
      CHANNELS 3 Zrotation Xrotation Yrotation
      JOINT right_tibia_foot
      {
        OFFSET 3.006224 -47.83518 -5
        CHANNELS 3 Zrotation Xrotation Yrotation
        End Site
        {
          OFFSET 0 -5 15
        }
      }
    }
  }
  JOINT pelvis_left_femur
  {
    OFFSET 10.78128 -3.44521 -0.5502486
    CHANNELS 3 Zrotation Xrotation Yrotation
    JOINT left_femur_tibia
    {
      OFFSET 0.8047443 -44.0398 -0.1307829
      CHANNELS 3 Zrotation Xrotation Yrotation
      JOINT left_tibia_foot
      {
        OFFSET -4.370144 -48.10324 -4.275266
        CHANNELS 3 Zrotation Xrotation Yrotation
        End Site
        {
          OFFSET 0 -5 15
        }
      }
    }
  }
  JOINT pelvis_spine1
  {
    OFFSET 0 6.468898 -3.129235
    CHANNELS 3 Zrotation Xrotation Yrotation
    JOINT spine1
    {
      OFFSET 0 23.15396 4.99043
      CHANNELS 3 Zrotation Xrotation Yrotation
      JOINT spine2
      {
        OFFSET 0 20.79997 -5.064912
        CHANNELS 3 Zrotation Xrotation Yrotation
        JOINT neck
        {
          OFFSET 0 14.38658 9.616178
          CHANNELS 3 Zrotation Xrotation Yrotation
          End Site
          {
            OFFSET 0 20 0
          }
        }
      }
      JOINT right_manubrium
      {
        OFFSET -5.722621 16.35077 3.967754
        CHANNELS 3 Zrotation Xrotation Yrotation
        JOINT right_clavicle
        {
          OFFSET -13.16364 1.694482 -4.693211
          CHANNELS 3 Zrotation Xrotation Yrotation
          JOINT right_humerus
          {
            OFFSET -28.5034 -0.3100689 -2.792744
            CHANNELS 3 Zrotation Xrotation Yrotation
            JOINT right_radius
            {
              OFFSET -25.15693 0.02248979 -1.271978
              CHANNELS 3 Zrotation Xrotation Yrotation
              End Site
              {
                OFFSET -15 0 0
              }
            }
          }
        }
      }
      JOINT left_manubrium
      {
        OFFSET 5.722621 16.35077 3.967754
        CHANNELS 3 Zrotation Xrotation Yrotation
        JOINT left_clavicle
        {
          OFFSET 13.16364 1.694482 -4.693211
          CHANNELS 3 Zrotation Xrotation Yrotation
          JOINT left_humerus
          {
            OFFSET 29.39168 -1.063119 -2.237045
            CHANNELS 3 Zrotation Xrotation Yrotation
            JOINT left_radius
            {
              OFFSET 24.59957 -0.9528479 0.9047498
              CHANNELS 3 Zrotation Xrotation Yrotation
              End Site
              {
                OFFSET 15 -0 -0
              }
            }
          }
        }
      }
    }
  }
}
MOTION
Frames: 19
Frame Time: 0.0416666666667
-1159.09 121.1016 2516.495 -7.018431 -2.563672 -66.06253 5.278311 -20.07054 -2.848763 -0 7.981217 -0 -12.35918 6.152849 -2.31963 -3.450971 13.42135 -5.911734 -0 44.29088 -0 -0.6880668 -10.87582 12.56495 0.4754902 -1.146965 2.79227 1.46361 13.43501 -8.102768 1.404365 22.47892 5.108797 2.841546 -20.66867 6.10294 -2.532457 -17.99005 11.46484 97.24659 19.89975 -23.96905 -0 0 4.55602 -20.0595 9.730652 7.777864 5.690894 -27.25574 -7.928332 -83.89239 12.51315 9.231505 0 0 -25.96627 14.31502 12.20489 -5.405268
-1165.626 121.9735 2518.916 -7.682808 -2.83302 -66.58616 5.630729 -15.80698 -2.663668 -0 7.205138 -0 -11.80771 5.484052 -2.482068 -2.787923 9.785918 -4.56175 -0 48.87289 -0 -1.794373 -8.986861 12.29951 0.7173232 -0.8815302 3.283135 1.167138 13.53063 -7.627853 1.486948 22.56305 4.86831 2.719587 -20.06871 5.878931 -2.761412 -18.15087 11.49127 96.77558 19.46652 -22.89546 -0 0 5.199878 -21.18019 10.20588 8.374881 5.372142 -26.67009 -7.87726 -84.21578 12.40573 10.10116 0 0 -24.8671 13.32904 11.65465 -4.310003
-1172.287 122.8994 2521.403 -8.059983 -2.92125 -67.23258 6.009883 -10.77095 -2.406232 -0 5.827168 -0 -11.4177 3.744375 -2.36975 -1.848489 4.933658 -3.470774 -0 50.89797 -0 -2.402509 -7.246893 12.53173 0.8952675 -0.6851944 3.956998 0.8940728 13.55429 -7.082145 1.523386 22.56231 4.6191 2.598751 -19.67541 5.643652 -2.921758 -18.81086 11.53281 95.7999 19.4307 -21.29687 -0 0 6.706877 -22.01513 10.52001 9.072674 5.096822 -25.93805 -7.644732 -85.00133 12.49071 11.97643 0 0 -23.24362 12.37379 11.34106 -3.18111
-1178.876 123.6497 2523.918 -8.040873 -2.779527 -68.00567 6.397709 -5.182304 -2.082879 -0 3.727082 -0 -11.25551 0.7932554 -1.924032 -0.6613469 -1.061072 -2.725399 -0 49.62335 -0 -2.368312 -5.8246 13.31759 0.9866201 -0.5918219 4.808315 0.677153 13.49016 -6.496327 1.497676 22.4538 4.376187 2.485786 -19.57472 5.4072 -2.986419 -20.04329 11.5928 94.25789 19.8639 -19.15562 -0 0 9.163488 -22.41471 10.61736 9.825322 4.893079 -25.09302 -7.208699 -86.33584 12.75361 14.95831 0 0 -21.11442 11.53098 11.35557 -2.102528
-1185.187 123.9767 2526.42 -7.59311 -2.418999 -68.90472 6.744098 0.637544 -1.718565 -0 1.099543 -0 -11.32161 -3.228806 -1.154818 0.6596041 -7.881865 -2.366012 -0 44.7648 -0 -1.640068 -4.846204 14.63433 0.972334 -0.6208013 5.789871 0.531989 13.33743 -5.902965 1.40626 22.24035 4.159182 2.387894 -19.79634 5.186751 -2.94428 -21.81606 11.67003 92.17723 20.72625 -16.51327 -0 0 12.48919 -22.32304 10.47158 10.59137 4.773739 -24.17634 -6.590104 -88.23279 13.10882 18.94589 0 0 -18.55155 10.8603 11.73429 -1.149452
-1191.046 123.6918 2528.88 -6.814402 -1.931935 -69.9163 6.967668 6.294333 -1.353819 0 -1.44325 0 -11.53426 -7.790987 -0.1589558 1.919931 -14.92072 -2.381968 -0 36.83565 -0 -0.3258223 -4.346751 16.34905 0.8438788 -0.7629321 6.803509 0.4438696 13.11709 -5.329338 1.265997 21.96282 3.989435 2.312024 -20.27543 5.00633 -2.811953 -23.94222 11.75409 89.73334 21.83138 -13.51776 -0 0 16.36683 -21.84341 10.10512 11.34627 4.727221 -23.23111 -5.867344 -90.55448 13.41999 23.54645 0 0 -15.69496 10.37429 12.41316 -0.3639185
-1196.37 122.7448 2531.294 -5.949951 -1.480557 -71.00191 6.968765 11.41014 -1.035208 0 -2.918948 0 -11.74986 -12.00132 0.8990301 2.887113 -21.35462 -2.715782 -0 27.2557 -0 1.276234 -4.251888 18.21477 0.6072655 -0.972714 7.712849 0.3625235 12.87109 -4.788412 1.115805 21.69995 3.885201 2.263533 -20.8411 4.892787 -2.639129 -26.0837 11.81977 87.26737 22.87196 -10.44735 -0 0 20.25929 -21.25744 9.59582 12.0884 4.714931 -22.29032 -5.169141 -92.97253 13.57859 28.09353 0 0 -12.73532 10.01765 13.21114 0.2725636
-1201.214 121.2593 2533.693 -5.331224 -1.241489 -72.09046 6.656148 15.72277 -0.8011964 0 -2.249552 0 -11.8161 -14.8487 1.834867 3.364031 -26.36181 -3.272569 -0 17.98484 -0 2.743943 -4.4188 19.92173 0.2806258 -1.178795 8.380883 0.2162477 12.64967 -4.276313 1.006034 21.54678 3.85729 2.244663 -21.26202 4.868633 -2.496954 -27.84023 11.82835 85.21376 23.52245 -7.665221 -0 0 23.55241 -20.94684 9.055823 12.83066 4.68288 -21.3686 -4.63768 -95.04542 13.58687 31.83237 0 0 -9.867365 9.676908 13.87661 0.8412816
-1205.776 119.5006 2536.137 -5.247293 -1.333912 -73.08627 5.978212 19.10153 -0.6704678 -0 1.334447 -0 -11.62987 -15.55939 2.491078 3.255152 -29.35351 -3.938279 -0 10.79525 -0 3.687895 -4.715775 21.19513 -0.1127847 -1.312111 8.711562 -0.05592821 12.49216 -3.783472 0.9788999 21.5788 3.908191 2.25395 -21.33804 4.945944 -2.448027 -28.885 11.74252 83.94979 23.56607 -5.506045 -0 0 25.7555 -21.23599 8.587802 13.57999 4.58623 -20.46974 -4.378812 -96.38915 13.55349 34.17801 0 0 -7.251527 9.23388 14.18534 1.442171
-1210.332 117.8001 2538.689 -5.821227 -1.778191 -73.89048 4.947733 21.45024 -0.6418548 -0 7.965876 -0 -11.1695 -13.85827 2.764393 2.582313 -30.06988 -4.613108 -0 6.653325 -0 3.905211 -5.083803 21.88164 -0.5491115 -1.334632 8.669337 -0.4710487 12.4139 -3.315968 1.051637 21.82228 4.03447 2.287334 -20.98454 5.124323 -2.514382 -29.06261 11.54876 83.65938 22.96809 -4.173591 -0 0 26.6297 -22.24529 8.247708 14.31511 4.413447 -19.61186 -4.429897 -96.81003 13.60091 34.86701 0 0 -5.022963 8.638366 14.03082 2.121555
-1215.139 116.4762 2541.39 -6.957826 -2.500424 -74.42294 3.656698 22.60007 -0.7098484 -0 17.01005 -0 -10.49284 -10.03083 2.621741 1.455799 -28.54628 -5.243797 -0 5.546809 -0 3.441578 -5.546075 21.97544 -1.001959 -1.252018 8.275582 -0.9861492 12.40669 -2.911851 1.210667 22.24424 4.228427 2.34017 -20.26484 5.390763 -2.66657 -28.41066 11.2698 84.291 21.87141 -3.717725 -0 0 26.19822 -23.83312 8.037954 14.97308 4.194953 -18.85295 -4.758299 -96.32821 13.77822 33.95519 0 0 -3.329589 7.951723 13.46075 2.822136
-1220.341 115.7663 2544.236 -8.377742 -3.363666 -74.63615 2.272602 22.31299 -0.8834825 -0 27.16166 -0 -9.717552 -4.818896 2.112702 0.03888952 -25.05635 -5.830227 -0 6.698517 -0 2.550023 -6.176022 21.58869 -1.438879 -1.10758 7.596998 -1.507025 12.44894 -2.638097 1.417002 22.76246 4.477107 2.408867 -19.36473 5.719564 -2.84105 -27.12671 10.95682 85.60737 20.53904 -4.074877 -0 0 24.68972 -25.64186 7.926962 15.45498 3.991442 -18.29351 -5.280894 -95.13167 14.04364 31.74607 0 0 -2.340976 7.331374 12.65592 3.392074
-1225.933 115.7708 2547.185 -9.715181 -4.204285 -74.52072 1.000457 20.38961 -1.184254 -0 36.76355 -0 -9.001309 0.795001 1.368698 -1.48244 -20.06092 -6.410701 -0 8.955414 -0 1.585442 -7.0533 20.89826 -1.823345 -0.9642028 6.731011 -1.917562 12.51658 -2.568754 1.619448 23.27019 4.761564 2.491804 -18.52736 6.07509 -2.970895 -25.50398 10.66841 87.28325 19.27369 -5.123335 -0 0 22.45868 -27.21819 7.874123 15.65236 3.869903 -18.04957 -5.891235 -93.50589 14.30974 28.70206 0 0 -2.208908 6.968923 11.86624 3.644913
-1231.797 116.4259 2550.174 -10.63383 -4.8628 -74.10474 0.0198904 16.7821 -1.617704 -0 44.23563 -0 -8.521391 5.844371 0.5777396 -2.928177 -14.13331 -7.042409 -0 11.18296 -0 0.8870695 -8.22762 20.09452 -2.121894 -0.8830592 5.786877 -2.115158 12.5889 -2.758583 1.770124 23.6657 5.058711 2.589066 -17.97808 6.41874 -3.008933 -23.85215 10.45166 89.00625 18.34259 -6.724173 -0 0 19.89689 -28.15156 7.843341 15.48143 3.88159 -18.21307 -6.484805 -91.75519 14.50552 25.33976 0 0 -3.014386 7.023669 11.32823 3.428231
-1237.753 117.5213 2553.131 -10.9156 -5.208695 -73.44962 -0.562842 11.64837 -2.146487 -0 48.43915 -0 -8.438445 9.587949 -0.06683533 -4.146454 -7.867787 -7.780323 -0 12.55575 -0 0.6908421 -9.694515 19.34422 -2.310921 -0.9064807 4.866692 -2.037678 12.6495 -3.224933 1.836522 23.87624 5.344549 2.700589 -17.86696 6.716909 -2.935317 -22.42714 10.33405 90.54706 17.92646 -8.7384 -0 0 17.3546 -28.17866 7.803662 14.90985 4.050631 -18.82068 -6.976812 -90.13313 14.61027 22.12404 0 0 -4.735254 7.581941 11.19553 2.66741
-1243.628 118.7626 2555.989 -10.50312 -5.164377 -72.64341 -0.7221072 5.350741 -2.691613 -0 48.88653 -0 -8.838824 11.62782 -0.4345925 -5.028952 -1.800393 -8.652463 -0 12.71096 -0 1.084262 -11.38182 18.76522 -2.379891 -1.048052 4.051242 -1.676818 12.68637 -3.940841 1.807592 23.87149 5.597085 2.823494 -18.23907 6.946521 -2.755173 -21.38638 10.32359 91.78853 18.09306 -11.02625 -0 0 15.08686 -27.23621 7.727908 13.96976 4.371959 -19.83947 -7.312744 -88.80051 14.64618 19.38734 0 0 -7.239949 8.641651 11.50248 1.382005
-1249.281 119.8574 2558.687 -9.499818 -4.728621 -71.78978 -0.4922202 -1.581288 -3.159002 -0 45.80121 -0 -9.683203 11.94775 -0.5118067 -5.525617 3.648258 -9.634236 -0 11.78335 -0 1.995451 -13.14992 18.40563 -2.33147 -1.289888 3.391383 -1.079388 12.69386 -4.837448 1.694375 23.66738 5.798771 2.950252 -19.02946 7.097113 -2.493964 -20.77096 10.41128 92.7209 18.78735 -13.44298 -0 0 13.22617 -25.46836 7.599587 12.75675 4.813385 -21.16893 -7.474788 -87.81453 14.64823 17.28677 0 0 -10.30084 10.1096 12.16455 -0.314165
-1254.629 120.5942 2561.178 -8.135196 -3.988506 -70.99008 0.05438643 -8.521457 -3.473084 -0 40.04047 -0 -10.80728 10.88698 -0.3982195 -5.657191 8.212308 -10.63231 -0 10.33742 -0 3.210463 -14.81203 18.22881 -2.179812 -1.587024 2.904247 -0.3374814 12.67618 -5.815112 1.526129 23.32096 5.938677 3.069037 -20.08003 7.169934 -2.19315 -20.51204 10.57346 93.41375 19.83874 -15.84286 -0 0 11.77848 -23.19282 7.427083 11.41329 5.319601 -22.65828 -7.484653 -87.14087 14.63597 15.80002 0 0 -13.62544 11.80957 13.01077 -2.226318
-1259.661 120.8898 2563.432 -6.702342 -3.103848 -70.3223 0.8184868 -14.8512 -3.603526 -0 32.87253 -0 -11.98408 9.040107 -0.2428779 -5.512344 11.79688 -11.49409 -0 9.196303 -0 4.423509 -16.17493 18.11865 -1.94729 -1.879113 2.575513 0.4327533 12.64909 -6.763176 1.342362 22.91549 6.013799 3.166445 -21.17887 7.174775 -1.904182 -20.46205 10.77563 93.97427 20.99552 -18.093 -0 0 10.64523 -20.82393 7.252588 10.09667 5.820056 -24.13821 -7.398893 -86.68088 14.60231 14.76162 0 0 -16.90596 13.51078 13.83878 -4.112151
